<?xml version="1.0" encoding="UTF-8"?>
<svg width="244px" height="24px" viewBox="0 0 244 24" version="1.1" xmlns="http://www.w3.org/2000/svg" xmlns:xlink="http://www.w3.org/1999/xlink">
    <!-- Generator: Sketch 52.6 (67491) - http://www.bohemiancoding.com/sketch -->
    <title>SIMULACRE</title>
    <desc>Created with Sketch.</desc>
    <g id="Page-1" stroke="none" stroke-width="1" fill="none" fill-rule="evenodd">
        <g id="Desktop-HD" transform="translate(-598.000000, -20.000000)" fill="#FEFEFE">
            <path d="M605.320529,43.7882353 C603.838776,43.7882353 602.415844,43.4441211 601.05169,42.7558824 C599.687537,42.0676436 598.670317,41.0000072 598,39.5529412 L599.128949,39.0764706 C599.822786,40.5470662 600.916444,41.5470562 602.409957,42.0764706 C603.374273,42.4176488 604.344454,42.5882353 605.320529,42.5882353 C607.131561,42.5882353 608.67797,42.082358 609.959804,41.0705882 C610.85356,40.3647024 611.323951,39.3823592 611.370991,38.1235294 C611.335711,36.6176395 610.259692,35.247065 608.142902,34.0117647 C607.260906,33.5058798 606.384803,33.0470609 605.514567,32.6352941 C602.88034,31.3999938 600.904698,30.0000078 599.587585,28.4352941 C598.834948,27.541172 598.458636,26.6294164 598.458636,25.7 C598.458636,24.4176406 598.896687,23.2941225 599.772803,22.3294118 C600.648919,21.3647011 601.886634,20.7000018 603.485987,20.3352941 C604.156304,20.1823522 604.832491,20.1058824 605.514567,20.1058824 C606.020245,20.1058824 606.699372,20.1735287 607.551968,20.3088235 C608.404564,20.4441183 609.333585,20.8470555 610.339061,21.5176471 C611.344536,22.1882386 612.117741,23.1235234 612.658698,24.3235294 L611.529749,24.7823529 C610.824152,23.2999926 609.730494,22.3000026 608.248741,21.7823529 C607.331465,21.4647043 606.414203,21.3058824 605.496927,21.3058824 C603.662376,21.3058824 602.133606,21.8294065 600.910572,22.8764706 C600.099136,23.5705917 599.693424,24.5352879 599.693424,25.7705882 C599.775743,26.6176513 600.204975,27.4264667 600.981131,28.1970588 C601.757288,28.9676509 602.621631,29.6441147 603.574186,30.2264706 C604.526742,30.8088264 605.355805,31.2529396 606.061402,31.5588235 C606.990438,31.9941198 607.945919,32.5058794 608.927874,33.0941176 C609.90983,33.6823559 610.759473,34.3882312 611.47683,35.2117647 C612.194186,36.0352982 612.570499,37.0058768 612.605779,38.1235294 C612.582259,39.4882421 612.088349,40.6588186 611.124033,41.6352941 C610.159718,42.6117696 608.848503,43.2705865 607.190351,43.6117647 C606.578834,43.7294124 605.955566,43.7882353 605.320529,43.7882353 Z M627.858351,43.6647059 L626.623563,43.6647059 L626.623563,20.3352941 L627.858351,20.3352941 L627.858351,43.6647059 Z M665.725185,43.6647059 L664.508037,43.6647059 L664.508037,23.3529412 L653.024508,36.4117647 L641.858496,23.4588235 L641.858496,43.6647059 L640.641348,43.6647059 L640.641348,20.1764706 L653.042148,34.5764706 L665.725185,20.1411765 L665.725185,43.6647059 Z M686.8871,43.8764706 C684.335192,43.8764706 682.206674,43.0353025 680.501482,41.3529412 C678.90213,39.7058741 678.102465,37.8353046 678.102465,35.7411765 L678.102465,20.3352941 L679.337253,20.3352941 L679.337253,35.7411765 C679.337253,37.5058912 680.01344,39.082346 681.365834,40.4705882 C682.882867,41.9176543 684.71739,42.6411765 686.86946,42.6411765 C689.03329,42.5705879 690.914853,41.7294198 692.514206,40.1176471 C693.79604,38.7529344 694.436947,37.3117723 694.436947,35.7941176 L694.436947,20.3352941 L695.671735,20.3352941 L695.671735,35.7411765 C695.671735,37.6000093 694.91323,39.3470506 693.396197,40.9823529 C691.561646,42.829421 689.391969,43.7941172 686.8871,43.8764706 Z M723.254549,43.6647059 L708.59585,43.6647059 L708.59585,20.3352941 L709.830638,20.3352941 L709.830638,42.4470588 L723.254549,42.4470588 L723.254549,43.6647059 Z M750.449285,34.8235294 L745.86293,23.4764706 L740.959057,34.8235294 L750.449285,34.8235294 Z M755.370798,43.6647059 L754.030171,43.6647059 L750.943201,36.0411765 L740.429862,36.0411765 L737.131214,43.6647059 L735.790587,43.6647059 L745.89821,20.3 L755.370798,43.6647059 Z M777.502904,44 C775.303794,44 773.295814,43.4617701 771.478902,42.3852941 C769.661991,41.3088181 768.212599,39.8617738 767.130684,38.0441176 C766.048769,36.2264615 765.50782,34.2117758 765.50782,32 C765.50782,29.799989 766.048769,27.7911856 767.130684,25.9735294 C768.212599,24.1558733 769.661991,22.7058878 771.478902,21.6235294 C773.295814,20.5411711 775.303794,20 777.502904,20 C780.37233,20 782.971239,20.9646962 785.299708,22.8941176 L784.347158,23.7058824 C782.289167,22.0588153 780.007772,21.2352941 777.502904,21.2352941 C775.527233,21.2352941 773.725049,21.7205834 772.096296,22.6911765 C770.467544,23.6617696 769.168089,24.9617566 768.197894,26.5911765 C767.227698,28.2205964 766.742608,30.0235195 766.742608,32 C766.742608,33.9882452 767.227698,35.7970507 768.197894,37.4264706 C769.168089,39.0558905 770.467544,40.3558775 772.096296,41.3264706 C773.725049,42.2970637 775.527233,42.7823529 777.502904,42.7823529 C780.301771,42.7823529 782.783082,41.7882452 784.946912,39.8 L785.881823,40.5941176 C783.459274,42.8647172 780.666329,44 777.502904,44 Z M807.590573,31.6470588 C807.719932,31.6470588 808.031566,31.6323531 808.525484,31.6029412 C809.019401,31.5735293 809.645609,31.4500011 810.404126,31.2323529 C811.162642,31.0147048 811.847649,30.6294145 812.459166,30.0764706 C813.247082,29.3117609 813.641034,28.294124 813.641034,27.0235294 C813.641034,25.3294033 813.147124,24.0176517 812.159289,23.0882353 C811.006814,22.0764655 809.513323,21.5705882 807.678772,21.5705882 L800.217124,21.5705882 L800.217124,31.6470588 L807.590573,31.6470588 Z M814.787623,43.6647059 L813.323517,43.6647059 L806.249946,32.8823529 L800.217124,32.8823529 L800.217124,43.6647059 L798.999976,43.6647059 L798.999976,20.3352941 L807.643492,20.3352941 C809.819082,20.3352941 811.600687,20.9470527 812.988361,22.1705882 C814.223155,23.3352999 814.852302,24.9352839 814.875822,26.9705882 C814.875822,28.6176553 814.352513,29.9470538 813.305878,30.9588235 C812.670841,31.5470618 811.977014,31.9764692 811.224378,32.2470588 C810.036623,32.6705904 808.866526,32.8823529 807.714052,32.8823529 L814.787623,43.6647059 Z M842,43.6647059 L827.694098,43.6647059 L827.694098,20.3352941 L842,20.3352941 L842,21.5529412 L828.911247,21.5529412 L828.911247,31.2411765 L839.95378,31.2411765 L839.95378,32.4588235 L828.911247,32.4588235 L828.911247,42.4470588 L842,42.4470588 L842,43.6647059 Z" id="SIMULACRE"></path>
        </g>
    </g>
</svg>