<?xml version="1.0" encoding="UTF-8"?>
<svg width="16px" height="14px" viewBox="0 0 16 14" version="1.1" xmlns="http://www.w3.org/2000/svg" xmlns:xlink="http://www.w3.org/1999/xlink">
    <!-- Generator: Sketch 52.6 (67491) - http://www.bohemiancoding.com/sketch -->
    <title>Vimeo</title>
    <desc>Created with Sketch.</desc>
    <g id="Page-1" stroke="none" stroke-width="1" fill="none" fill-rule="evenodd">
        <g id="Desktop-HD" transform="translate(-1290.000000, -25.000000)" fill="#FEFEFE">
            <path d="M1303.6611,25.0030208 C1301.43678,24.9297476 1299.93156,26.1894753 1299.14339,28.7836312 C1299.5493,28.6148513 1299.94376,28.5296726 1300.32847,28.5296726 C1301.13956,28.5296726 1301.49857,28.9892543 1301.40275,29.9108588 C1301.35521,30.4689518 1300.99687,31.2810033 1300.32847,32.346713 C1299.65744,33.4141879 1299.15622,33.9470052 1298.82325,33.9470052 C1298.39096,33.9470052 1297.99747,33.1223346 1297.6382,31.4750214 C1297.51771,30.9898636 1297.30225,29.7544726 1296.99376,27.7657312 C1296.70454,25.9237239 1295.94028,25.063074 1294.69757,25.1840442 C1294.17188,25.2328304 1293.38437,25.7188895 1292.33335,26.6387665 C1291.56657,27.3419786 1290.78966,28.0453786 1290,28.748065 L1290.75235,29.7287462 C1291.47041,29.2194019 1291.89046,28.9659315 1292.00711,28.9659315 C1292.55773,28.9659315 1293.07194,29.8379612 1293.55043,31.5817952 C1293.97933,33.1833643 1294.41189,34.7827551 1294.84287,36.3819956 C1295.48478,38.1271065 1296.27612,39 1297.20695,39 C1298.71251,39 1300.55591,37.5704032 1302.72986,34.7101579 C1304.83299,31.9719345 1305.91875,29.8145634 1305.992,28.2375939 C1306.08853,26.1300982 1305.31163,25.050868 1303.6611,25.0030208 Z" id="Vimeo"></path>
        </g>
    </g>
</svg>