<?xml version="1.0" encoding="UTF-8"?>
<svg width="8px" height="14px" viewBox="0 0 8 14" version="1.1" xmlns="http://www.w3.org/2000/svg" xmlns:xlink="http://www.w3.org/1999/xlink">
    <!-- Generator: Sketch 52.6 (67491) - http://www.bohemiancoding.com/sketch -->
    <title>facebook</title>
    <desc>Created with Sketch.</desc>
    <g id="Page-1" stroke="none" stroke-width="1" fill="none" fill-rule="evenodd">
        <g id="Desktop-HD" transform="translate(-1233.000000, -25.000000)" fill="#FEFEFE">
            <path d="M1240.69874,25.0029129 L1238.77991,25 C1236.62416,25 1235.23102,26.3523298 1235.23102,28.4454189 L1235.23102,30.0339877 L1233.30172,30.0339877 C1233.135,30.0339877 1233,30.1618655 1233,30.3196009 L1233,32.6212561 C1233,32.7789915 1233.13516,32.9067237 1233.30172,32.9067237 L1235.23102,32.9067237 L1235.23102,38.7145324 C1235.23102,38.8722678 1235.36603,39 1235.53274,39 L1238.04993,39 C1238.21665,39 1238.35165,38.8721222 1238.35165,38.7145324 L1238.35165,32.9067237 L1240.60746,32.9067237 C1240.77417,32.9067237 1240.90918,32.7789915 1240.90918,32.6212561 L1240.9101,30.3196009 C1240.9101,30.2438646 1240.87824,30.1713326 1240.82174,30.1177346 C1240.76524,30.0641366 1240.68828,30.0339877 1240.60823,30.0339877 L1238.35165,30.0339877 L1238.35165,28.6873381 C1238.35165,28.0400841 1238.51467,27.7115051 1239.40582,27.7115051 L1240.69844,27.7110681 C1240.865,27.7110681 1241,27.5831903 1241,27.4256005 L1241,25.2883805 C1241,25.1309364 1240.86515,25.0032042 1240.69874,25.0029129 Z" id="facebook"></path>
        </g>
    </g>
</svg>