<?xml version="1.0" encoding="UTF-8"?>
<svg width="14px" height="14px" viewBox="0 0 14 14" version="1.1" xmlns="http://www.w3.org/2000/svg" xmlns:xlink="http://www.w3.org/1999/xlink">
    <!-- Generator: Sketch 52.6 (67491) - http://www.bohemiancoding.com/sketch -->
    <title>instagram</title>
    <desc>Created with Sketch.</desc>
    <g id="Page-1" stroke="none" stroke-width="1" fill="none" fill-rule="evenodd">
        <g id="Desktop-HD" transform="translate(-1258.000000, -25.000000)" fill="#FEFEFE" fill-rule="nonzero">
            <path d="M1268.13642,25 C1270.26687,25 1272.00008,26.7332103 1272,28.8634939 L1272,35.1365061 C1272,37.2667897 1270.26687,39 1268.13642,39 L1261.86341,39 C1259.73313,39 1258,37.2668725 1258,35.1365061 L1258,28.8634939 C1258,26.7332103 1259.73313,25 1261.86341,25 L1268.13642,25 Z M1270.75793,35.1365061 L1270.75785,35.1365061 L1270.75785,28.8634939 C1270.75785,27.4181306 1269.58187,26.2421479 1268.13642,26.2421479 L1261.86341,26.2421479 C1260.41805,26.2421479 1259.24215,27.4181306 1259.24215,28.8634939 L1259.24215,35.1365061 C1259.24215,36.5819522 1260.41805,37.757935 1261.86341,37.7578521 L1268.13651,37.7578521 C1269.58195,37.7578521 1270.75793,36.5819522 1270.75793,35.1365061 Z M1265,28.3927198 C1266.98918,28.3927198 1268.60745,30.0109901 1268.60745,32.0001656 C1268.60745,33.9892584 1266.98918,35.6074458 1265,35.6074458 C1263.01082,35.6074458 1261.39255,33.9892584 1261.39255,32.0001656 C1261.39255,30.0109901 1263.01082,28.3927198 1265,28.3927198 Z M1265,34.3652151 C1266.30417,34.3652151 1267.3653,33.3042552 1267.3653,32.0000828 C1267.3653,30.6958276 1266.30426,29.6347849 1265,29.6347849 C1263.69574,29.6347849 1262.6347,30.6958276 1262.6347,32.0000828 C1262.6347,33.3042552 1263.69583,34.3652151 1265,34.3652151 Z M1268.75874,27.3394613 C1268.99889,27.3394613 1269.23407,27.4363488 1269.403,27.606109 C1269.57276,27.7750411 1269.66965,28.0102211 1269.66965,28.2503697 C1269.66965,28.4896902 1269.57276,28.7248702 1269.403,28.8946304 C1269.23324,29.0635625 1268.99889,29.1612781 1268.75874,29.1612781 C1268.51942,29.1612781 1268.28424,29.0635625 1268.11531,28.8946304 C1267.94555,28.7248702 1267.84783,28.489773 1267.84783,28.2503697 C1267.84783,28.0102211 1267.94546,27.7750411 1268.11531,27.606109 C1268.28432,27.4363488 1268.51942,27.3394613 1268.75874,27.3394613 Z" id="instagram"></path>
        </g>
    </g>
</svg>